<svg xmlns="http://www.w3.org/2000/svg" version="1.1" xmlns:xlink="http://www.w3.org/1999/xlink" xmlns:svgjs="http://svgjs.dev/svgjs" width="1500" height="1500" viewBox="0 0 1500 1500"><rect width="1500" height="1500" fill="#000000"></rect><g transform="matrix(0.6666666666666666,0,0,0.6666666666666666,250.8607715773245,648.2233720797778)"><svg viewBox="0 0 284 57" data-background-color="#046380" preserveAspectRatio="xMidYMid meet" height="301" width="1500" xmlns="http://www.w3.org/2000/svg" xmlns:xlink="http://www.w3.org/1999/xlink"><g id="tight-bounds" transform="matrix(1,0,0,1,-0.24445912796016955,0.40997921264590786)"><svg viewBox="0 0 284.48891825592034 56.71825454545454" height="56.71825454545454" width="284.48891825592034"><g><svg viewBox="0 0 284.48891825592034 56.71825454545454" height="56.71825454545454" width="284.48891825592034"><g><svg viewBox="0 0 284.48891825592034 56.71825454545454" height="56.71825454545454" width="284.48891825592034"><g id="textblocktransform"><svg viewBox="0 0 284.48891825592034 56.71825454545454" height="56.71825454545454" width="284.48891825592034" id="textblock"><g><svg viewBox="0 0 284.48891825592034 56.71825454545454" height="56.71825454545454" width="284.48891825592034"><g><svg><g></g><g></g></svg></g><g><svg><g><svg></svg></g><g></g></svg></g><g id="text-0"><svg viewBox="0 0 284.48891825592034 56.71825454545454" height="56.71825454545454" width="284.48891825592034"><g transform="matrix(1,0,0,1,0,0)"><svg width="213.00969999999998" viewBox="2.55 -24.954541015624997 131.64 35.05454101562499" height="56.71825454545454" data-palette-color="#ffffff"><g class="wordmark-text-0" data-fill-palette-color="primary"><path d="M15.4-24.95L15.4-24.95Q18.1-24.95 19.98-24.23 21.85-23.5 22.8-21.8 23.75-20.1 23.75-17.15L23.75-17.15 23.75 0 20.4 0 19.75-5.3 19.45-5.85 19.45-17.15Q19.45-19.4 18.43-20.38 17.4-21.35 14.5-21.35L14.5-21.35Q12.6-21.35 9.73-21.15 6.85-20.95 4.05-20.7L4.05-20.7 3.65-23.85Q5.35-24.15 7.38-24.4 9.4-24.65 11.5-24.8 13.6-24.95 15.4-24.95ZM9.3-15L21.75-15 21.7-11.8 10.05-11.75Q8.3-11.7 7.6-10.83 6.9-9.95 6.9-8.4L6.9-8.4 6.9-6.85Q6.9-4.95 7.8-4.08 8.7-3.2 10.7-3.2L10.7-3.2Q12.1-3.2 13.88-3.73 15.65-4.25 17.45-5.35 19.25-6.45 20.75-8.15L20.75-8.15 20.75-5Q20.2-4.3 19.18-3.38 18.15-2.45 16.73-1.58 15.3-0.7 13.58-0.13 11.85 0.45 9.85 0.45L9.85 0.45Q7.7 0.45 6.05-0.33 4.4-1.1 3.48-2.63 2.55-4.15 2.55-6.35L2.55-6.35 2.55-9Q2.55-11.85 4.33-13.43 6.1-15 9.3-15L9.3-15ZM41-24.95L41-24.95Q44.9-24.95 47.17-24.15 49.45-23.35 50.42-21.65 51.4-19.95 51.4-17.2L51.4-17.2Q51.4-14.55 50.42-12.83 49.45-11.1 47.15-10.28 44.85-9.45 40.95-9.45L40.95-9.45Q37.05-9.45 34.77-10.28 32.5-11.1 31.52-12.8 30.55-14.5 30.55-17.15L30.55-17.15Q30.55-19.9 31.52-21.63 32.5-23.35 34.8-24.15 37.1-24.95 41-24.95ZM40.95-21.7L40.95-21.7Q37.3-21.7 35.87-20.68 34.45-19.65 34.45-17.2L34.45-17.2Q34.45-14.8 35.87-13.75 37.3-12.7 40.95-12.7L40.95-12.7Q44.65-12.7 46.05-13.75 47.45-14.8 47.45-17.2L47.45-17.2Q47.45-19.65 46.05-20.68 44.65-21.7 40.95-21.7ZM46.05-24.35L54.25-24.35 54-22 47.8-21.5 46.05-24.35ZM34.1-11.05L34.1-11.05 36.55-10.7Q35.7-9.95 35.4-8.88 35.1-7.8 35.57-6.9 36.05-6 37.6-5.75L37.6-5.75 46.7-4.3Q50.15-3.8 51.5-2.15 52.85-0.5 52.85 2.55L52.85 2.55Q52.85 5.4 51.77 7.05 50.7 8.7 48.15 9.4 45.6 10.1 41.25 10.1L41.25 10.1Q37.95 10.1 35.7 9.73 33.45 9.35 32.07 8.47 30.7 7.6 30.1 6.2 29.5 4.8 29.5 2.7L29.5 2.7Q29.5 1.1 29.97 0.03 30.45-1.05 31.47-1.9 32.5-2.75 34.15-3.55L34.15-3.55 37.15-5.2 39.1-4.5 36.65-2.65Q35.65-1.9 34.97-1.18 34.3-0.45 33.97 0.38 33.65 1.2 33.65 2.35L33.65 2.35Q33.65 4.05 34.3 4.95 34.95 5.85 36.6 6.18 38.25 6.5 41.2 6.5L41.2 6.5Q44.15 6.5 45.77 6.15 47.4 5.8 48.05 4.9 48.7 4 48.7 2.35L48.7 2.35Q48.7 1.1 48.37 0.45 48.05-0.2 47.15-0.55 46.25-0.9 44.5-1.15L44.5-1.15 35.75-2.35Q34.2-2.55 33.27-3.35 32.35-4.15 32-5.25 31.65-6.35 31.8-7.48 31.95-8.6 32.55-9.58 33.15-10.55 34.1-11.05ZM74.05-24.95L74.05-24.95Q80.65-24.95 80.65-18.25L80.65-18.25 80.65 0 76.4 0 76.4-17.05Q76.4-19.5 75.59-20.43 74.8-21.35 72.9-21.35L72.9-21.35Q70.65-21.35 68.4-20.25 66.15-19.15 63.05-17.25L63.05-17.25 62.85-20.3Q65.7-22.5 68.5-23.73 71.3-24.95 74.05-24.95ZM59.25-24.35L62.85-24.35 63.2-19.7 63.5-18.95 63.5 0 59.25 0 59.25-24.35ZM98.29-24.95L98.29-24.95Q103.79-24.95 106.27-22.95 108.74-20.95 108.74-17L108.74-17Q108.79-13.75 107.39-11.93 105.99-10.1 102.94-10.1L102.94-10.1 88.74-10.1 88.74-13.4 101.84-13.4Q103.49-13.4 103.99-14.53 104.49-15.65 104.49-17L104.49-17Q104.44-19.35 103.09-20.35 101.74-21.35 98.49-21.35L98.49-21.35Q95.84-21.35 94.32-20.58 92.79-19.8 92.17-17.88 91.54-15.95 91.54-12.5L91.54-12.5Q91.54-8.6 92.32-6.55 93.09-4.5 94.79-3.75 96.49-3 99.29-3L99.29-3Q101.24-3 103.57-3.18 105.89-3.35 107.74-3.6L107.74-3.6 108.19-0.75Q107.04-0.3 105.37 0 103.69 0.3 101.92 0.45 100.14 0.6 98.74 0.6L98.74 0.6Q94.54 0.6 91.99-0.68 89.44-1.95 88.27-4.78 87.09-7.6 87.09-12.25L87.09-12.25Q87.09-17.05 88.27-19.83 89.44-22.6 91.92-23.78 94.39-24.95 98.29-24.95ZM123.24-24.95L123.24-24.95Q124.84-24.95 126.64-24.85 128.44-24.75 130.22-24.6 131.99-24.45 133.49-24.2L133.49-24.2 133.14-21.1Q130.84-21.2 128.52-21.28 126.19-21.35 123.89-21.35L123.89-21.35Q121.64-21.4 120.34-21.25 119.04-21.1 118.47-20.45 117.89-19.8 117.89-18.25L117.89-18.25Q117.89-16.35 118.79-15.75 119.69-15.15 121.44-14.75L121.44-14.75 128.54-13.15Q131.44-12.45 132.81-11 134.19-9.55 134.19-6.45L134.19-6.45Q134.19-3.45 133.06-1.95 131.94-0.45 129.64 0.05 127.34 0.55 123.79 0.55L123.79 0.55Q122.49 0.55 119.92 0.45 117.34 0.35 114.24-0.15L114.24-0.15 114.54-3.25Q115.74-3.2 117.09-3.13 118.44-3.05 119.92-3.05 121.39-3.05 122.94-3.05L122.94-3.05Q125.69-3.05 127.24-3.3 128.79-3.55 129.44-4.28 130.09-5 130.09-6.45L130.09-6.45Q130.09-8.25 129.04-8.85 127.99-9.45 126.24-9.85L126.24-9.85 119.24-11.45Q117.24-11.95 116.04-12.78 114.84-13.6 114.29-14.93 113.74-16.25 113.74-18.25L113.74-18.25Q113.74-21.1 114.74-22.55 115.74-24 117.84-24.5 119.94-25 123.24-24.95Z" fill="#ffffff" data-fill-palette-color="primary"></path></g></svg></g><g><svg xmlns="http://www.w3.org/2000/svg" xmlns:xlink="http://www.w3.org/1999/xlink" version="1.1" x="226.40053636363635" y="0" viewBox="11.017823632605122 11.461749422187646 37.96369815853941 37.06825057781236" style="enable-background:new 0 0 60 60;" xml:space="preserve" height="56.71825454545454" width="58.08838189228402" class="icon-dxe-0" data-fill-palette-color="accent" id="dxe-0"><path d="M48.85 34.1L35.82 11.92A0.945 0.945 0 0 0 34.2 11.92L30 19.08 25.79 11.93A0.945 0.945 0 0 0 24.17 11.93L11.15 34.1C10.93 34.47 10.99 34.93 11.29 35.23L24.32 48.26C24.5 48.44 24.74 48.53 24.98 48.53S25.46 48.44 25.64 48.26L30 43.91 34.35 48.26C34.53 48.44 34.77 48.53 35.01 48.53S35.49 48.44 35.67 48.26L48.7 35.23C49.01 34.93 49.07 34.46 48.85 34.1M24.99 46.28L13.13 34.42 24.99 14.24 28.92 20.92 21.17 34.1C20.95 34.47 21.01 34.93 21.31 35.23L28.67 42.59zM30 22.77L36.85 34.42 30 41.27 23.15 34.42zM35.01 46.28L31.32 42.59 38.68 35.23C38.98 34.93 39.04 34.46 38.82 34.1L31.08 20.93 35.01 14.25 46.87 34.43z" fill="#ffffff" data-fill-palette-color="accent"></path></svg></g></svg></g></svg></g></svg></g></svg></g><g></g></svg></g><defs></defs></svg><rect width="284.48891825592034" height="56.71825454545454" fill="none" stroke="none" visibility="hidden"></rect></g></svg></g></svg>